#!OML:ASF H:\Pregnant\Project 1\Capture day 1\Session 1\femalepreg.ASF
:FULLY-SPECIFIED
:DEGREES
2107
root 5.6916 15.3205 18.4879 -342.127 -33.7415 -4.41187
lowerback -11.6029 -1.05399 4.3485
upperback -8.30949 -1.94186 4.86606
thorax -2.18402 -1.11361 2.45227
lowerneck -29.1088 -2.69171 -1.62632
upperneck 26.253 -4.24557 3.19426
head 13.8949 -1.53777 0.69883
rclavicle -6.45056e-014 -7.95139e-015
rhumerus -33.487 -13.0228 -68.5194
rradius 24.8178
rwrist 6.41317
rhand -12.3143 -15.5674
rfingers 7.12502
rthumb 13.7541 -45.0928
lclavicle -6.45056e-014 -7.95139e-015
lhumerus -47.592 -6.19932 82.5088
lradius 27.5029
lwrist 44.1112
lhand -28.2444 2.6823
lfingers 7.12502
lthumb -1.62198 32.6559
rfemur -33.1143 19.5906 24.3631
rtibia 39.9307
rfoot -15.5323 -13.0976
rtoes -10.0643
lfemur -38.5483 -7.06993 -15.407
ltibia 61.2262
lfoot -10.3891 -2.57572
ltoes -37.1157
2108
root 5.6789 15.3195 18.5387 -342.118 -33.7068 -4.41903
lowerback -11.5189 -1.04012 4.3975
upperback -8.22863 -1.923 4.77414
thorax -2.14828 -1.10604 2.32989
lowerneck -29.0938 -2.70165 -1.60056
upperneck 26.2422 -4.27936 3.21789
head 13.8885 -1.54635 0.697326
rclavicle 2.66371e-014 2.8625e-014
rhumerus -33.5778 -12.9939 -68.4496
rradius 24.8713
rwrist 6.30885
rhand -12.6088 -15.7283
rfingers 7.12502
rthumb 13.4703 -45.2727
lclavicle 2.66371e-014 2.8625e-014
lhumerus -46.9176 -6.09544 82.2887
lradius 28.1627
lwrist 44.5008
lhand -28.3413 2.50742
lfingers 7.12502
lthumb -1.71558 32.4803
rfemur -32.8818 19.6013 24.3666
rtibia 39.9146
rfoot -15.691 -13.2273
rtoes -10.2039
lfemur -39.2397 -7.51748 -14.8628
ltibia 60.4141
lfoot -10.7061 -0.415028
ltoes -38.1618
2109
root 5.66646 15.3197 18.5906 -342.084 -33.6821 -4.44595
lowerback -11.4526 -1.02159 4.46337
upperback -8.15433 -1.90066 4.67974
thorax -2.11078 -1.09755 2.19569
lowerneck -29.0702 -2.7087 -1.57506
upperneck 26.2367 -4.31015 3.24393
head 13.8828 -1.55342 0.697514
rclavicle 5.59579e-014 -2.62396e-014
rhumerus -33.6904 -12.9307 -68.3971
rradius 24.9599
rwrist 6.12326
rhand -12.8565 -15.8502
rfingers 7.12502
rthumb 13.2315 -45.4103
lclavicle 5.59579e-014 -2.62396e-014
lhumerus -46.2643 -5.98175 82.0797
lradius 28.8583
lwrist 44.8385
lhand -28.4486 2.30381
lfingers 7.12502
lthumb -1.81921 32.2758
rfemur -32.6367 19.613 24.3801
rtibia 39.8487
rfoot -15.8321 -13.3437
rtoes -10.3595
lfemur -39.8869 -7.98378 -14.2581
ltibia 59.4731
lfoot -10.8123 1.60908
ltoes -38.9276
2110
root 5.65423 15.3211 18.6436 -342.024 -33.6711 -4.49107
lowerback -11.4027 -0.998125 4.54247
upperback -8.08703 -1.87407 4.58428
thorax -2.07235 -1.08757 2.05333
lowerneck -29.0399 -2.71238 -1.55028
upperneck 26.2378 -4.3368 3.27147
head 13.8785 -1.55861 0.699323
rclavicle 1.98785e-015 -7.95139e-015
rhumerus -33.8224 -12.8396 -68.3574
rradius 25.0781
rwrist 5.86275
rhand -13.062 -15.933
rfingers 7.12502
rthumb 13.0335 -45.5058
lclavicle 1.98785e-015 -7.95139e-015
lhumerus -45.6334 -5.85779 81.8849
lradius 29.5846
lwrist 45.1173
lhand -28.5719 2.04859
lfingers 7.12502
lthumb -1.93828 32.0195
rfemur -32.3824 19.6276 24.401
rtibia 39.7368
rfoot -15.9549 -13.4446
rtoes -10.5343
lfemur -40.4899 -8.46299 -13.5995
ltibia 58.4087
lfoot -10.7606 3.46974
ltoes -39.4831
2111
root 5.64219 15.3235 18.6977 -341.942 -33.6771 -4.55136
lowerback -11.3673 -0.969473 4.63144
upperback -8.0273 -1.84244 4.48772
thorax -2.03447 -1.07559 1.90478
lowerneck -29.0043 -2.71229 -1.52581
upperneck 26.247 -4.35868 3.29961
head 13.8764 -1.56171 0.702443
rclavicle -3.84648e-014 2.62396e-014
rhumerus -33.973 -12.7273 -68.3266
rradius 25.2212
rwrist 5.53342
rhand -13.2284 -15.9748
rfingers 7.12502
rthumb 12.873 -45.5578
lclavicle -3.84648e-014 2.62396e-014
lhumerus -45.0274 -5.72325 81.7056
lradius 30.3372
lwrist 45.3325
lhand -28.7067 1.73953
lfingers 7.12502
lthumb -2.06848 31.7093
rfemur -32.1216 19.6464 24.4257
rtibia 39.5839
rfoot -16.057 -13.5294
rtoes -10.7472
lfemur -41.0475 -8.94995 -12.8968
ltibia 57.2253
lfoot -10.5974 5.15186
ltoes -39.8881
2112
root 5.63037 15.3268 18.7529 -341.842 -33.7035 -4.62243
lowerback -11.343 -0.936048 4.72431
upperback -7.97586 -1.80552 4.39108
thorax -1.99938 -1.06127 1.75453
lowerneck -28.9666 -2.70817 -1.50135
upperneck 26.2671 -4.37472 3.32559
head 13.8784 -1.56256 0.705907
rclavicle 9.10434e-014 -5.56597e-014
rhumerus -34.1412 -12.5976 -68.3
rradius 25.3857
rwrist 5.13923
rhand -13.3563 -15.9806
rfingers 7.12502
rthumb 12.7497 -45.5714
lclavicle 9.10434e-014 -5.56597e-014
lhumerus -44.4494 -5.57787 81.5457
lradius 31.1105
lwrist 45.4856
lhand -28.8451 1.38313
lfingers 7.12502
lthumb -2.20214 31.3515
rfemur -31.8561 19.6702 24.4496
rtibia 39.3958
rfoot -16.1346 -13.5988
rtoes -11.0309
lfemur -41.5579 -9.44066 -12.1606
ltibia 55.9272
lfoot -10.3635 6.6411
ltoes -40.174
2113
root 5.61875 15.3308 18.8092 -341.727 -33.7534 -4.69996
lowerback -11.3277 -0.898237 4.81562
upperback -7.93214 -1.76323 4.29454
thorax -1.96736 -1.04435 1.60586
lowerneck -28.9307 -2.69965 -1.47613
upperneck 26.2998 -4.38427 3.34777
head 13.8857 -1.56095 0.70905
rclavicle -3.62782e-014 2.46493e-014
rhumerus -34.324 -12.4542 -68.2754
rradius 25.5682
rwrist 4.68405
rhand -13.4468 -15.9561
rfingers 7.12502
rthumb 12.6625 -45.5522
lclavicle -3.62782e-014 2.46493e-014
lhumerus -43.8996 -5.42189 81.4072
lradius 31.8993
lwrist 45.5818
lhand -28.9777 0.993327
lfingers 7.12502
lthumb -2.33019 30.9603
rfemur -31.5883 19.6998 24.4682
rtibia 39.1787
rfoot -16.1886 -13.6527
rtoes -11.3922
lfemur -42.0199 -9.93052 -11.4017
ltibia 54.5195
lfoot -10.0947 7.92006
ltoes -40.3608
2114
root 5.60736 15.3354 18.8665 -341.6 -33.8292 -4.78032
lowerback -11.32 -0.856678 4.9
upperback -7.89567 -1.71584 4.19875
thorax -1.93836 -1.02477 1.46243
lowerneck -28.8973 -2.68658 -1.45032
upperneck 26.3446 -4.3865 3.36474
head 13.8982 -1.55676 0.711485
rclavicle -1.04461e-013 -1.03368e-014
rhumerus -34.5177 -12.3 -68.2504
rradius 25.7654
rwrist 4.17319
rhand -13.5015 -15.9099
rfingers 7.12502
rthumb 12.6098 -45.5093
lclavicle -1.04461e-013 -1.03368e-014
lhumerus -43.3775 -5.257 81.2927
lradius 32.698
lwrist 45.63
lhand -29.0948 0.590499
lfingers 7.12502
lthumb -2.44323 30.5563
rfemur -31.3206 19.737 24.4776
rtibia 38.9388
rfoot -16.2233 -13.6918
rtoes -11.8212
lfemur -42.4344 -10.4146 -10.6286
ltibia 53.0076
lfoot -9.82456 8.96359
ltoes -40.4595
2115
root 5.59621 15.3403 18.9248 -341.464 -33.9326 -4.86087
lowerback -11.3196 -0.811802 4.97293
upperback -7.86518 -1.66358 4.10398
thorax -1.91098 -1.00242 1.32696
lowerneck -28.8657 -2.66888 -1.42386
upperneck 26.399 -4.38109 3.37619
head 13.9148 -1.5499 0.713153
rclavicle 3.38928e-014 5.64548e-014
rhumerus -34.718 -12.1388 -68.224
rradius 25.9742
rwrist 3.61397
rhand -13.523 -15.8517
rfingers 7.12502
rthumb 12.5891 -45.4524
lclavicle 3.38928e-014 5.64548e-014
lhumerus -42.8809 -5.08469 81.203
lradius 33.5005
lwrist 45.6387
lhand -29.1898 0.188263
lfingers 7.12502
lthumb -2.53497 30.1529
rfemur -31.0556 19.7843 24.4747
rtibia 38.6817
rfoot -16.2482 -13.7153
rtoes -12.2792
lfemur -42.8024 -10.8883 -9.8472
ltibia 51.3986
lfoot -9.58917 9.74072
ltoes -40.4731
2116
root 5.58529 15.3456 18.9839 -341.32 -34.0651 -4.94049
lowerback -11.3263 -0.764013 5.0318
upperback -7.83918 -1.6068 4.0103
thorax -1.88362 -0.977343 1.20089
lowerneck -28.8347 -2.64635 -1.3964
upperneck 26.4597 -4.36793 3.38287
head 13.9337 -1.54025 0.714311
rclavicle -6.71892e-014 3.97569e-015
rhumerus -34.9201 -11.9759 -68.1954
rradius 26.1907
rwrist 3.01772
rhand -13.5155 -15.7905
rfingers 7.12502
rthumb 12.5963 -45.3908
lclavicle -6.71892e-014 3.97569e-015
lhumerus -42.4073 -4.9062 81.1372
lradius 34.3014
lwrist 45.6152
lhand -29.2572 -0.200372
lfingers 7.12502
lthumb -2.60014 29.7635
rfemur -30.7943 19.8439 24.4581
rtibia 38.4114
rfoot -16.274 -13.7223
rtoes -12.7204
lfemur -43.1247 -11.349 -9.06149
ltibia 49.6997
lfoot -9.41892 10.2276
ltoes -40.4283
2117
root 5.57461 15.351 19.0437 -341.169 -34.2263 -5.01989
lowerback -11.3402 -0.713723 5.07635
upperback -7.81642 -1.54606 3.91764
thorax -1.85492 -0.949783 1.08423
lowerneck -28.8014 -2.61907 -1.3681
upperneck 26.5228 -4.34762 3.38693
head 13.953 -1.52784 0.71575
rclavicle -1.3418e-014 -4.13472e-014
rhumerus -35.1201 -11.8171 -68.164
rradius 26.4106
rwrist 2.39815
rhand -13.4834 -15.7343
rfingers 7.12502
rthumb 12.6272 -45.3326
lclavicle -1.3418e-014 -4.13472e-014
lhumerus -41.9557 -4.72243 81.0937
lradius 35.0956
lwrist 45.5655
lhand -29.2908 -0.557988
lfingers 7.12502
lthumb -2.6326 29.4055
rfemur -30.5367 19.9175 24.4285
rtibia 38.1307
rfoot -16.3098 -13.7123
rtoes -13.1061
lfemur -43.4017 -11.7991 -8.27122
ltibia 47.9208
lfoot -9.34042 10.4123
ltoes -40.3562
2118
root 5.56415 15.3564 19.1044 -341.011 -34.4172 -5.10183
lowerback -11.3601 -0.660707 5.1091
upperback -7.79556 -1.48122 3.82616
thorax -1.82423 -0.919733 0.975745
lowerneck -28.7653 -2.58741 -1.33913
upperneck 26.5864 -4.3213 3.39084
head 13.9717 -1.51285 0.718249
rclavicle 2.52953e-014 6.36111e-015
rhumerus -35.3155 -11.6689 -68.1278
rradius 26.6289
rwrist 1.77138
rhand -13.4319 -15.6897
rfingers 7.12502
rthumb 12.6769 -45.285
lclavicle 2.52953e-014 6.36111e-015
lhumerus -41.5274 -4.53321 81.0711
lradius 35.8786
lwrist 45.4916
lhand -29.2841 -0.87609
lfingers 7.12502
lthumb -2.62612 29.0875
rfemur -30.2794 20.0045 24.3891
rtibia 37.8409
rfoot -16.358 -13.684
rtoes -13.4363
lfemur -43.6302 -12.2451 -7.47438
ltibia 46.0744
lfoot -9.37079 10.302
ltoes -40.288
2119
root 5.55393 15.3618 19.166 -340.849 -34.6365 -5.19013
lowerback -11.3847 -0.604948 5.1348
upperback -7.77559 -1.41261 3.73575
thorax -1.7913 -0.887514 0.872663
lowerneck -28.7244 -2.55203 -1.31021
upperneck 26.649 -4.29076 3.39812
head 13.989 -1.49564 0.723003
rclavicle 2.9271e-014 -5.1684e-014
rhumerus -35.5045 -11.5385 -68.0852
rradius 26.8395
rwrist 1.15486
rhand -13.3685 -15.6596
rfingers 7.12502
rthumb 12.738 -45.2511
lclavicle 2.9271e-014 -5.1684e-014
lhumerus -41.1248 -4.33976 81.0681
lradius 36.6461
lwrist 45.3961
lhand -29.2322 -1.14914
lfingers 7.12502
lthumb -2.57596 28.8151
rfemur -30.0184 20.1024 24.3442
rtibia 37.5427
rfoot -16.416 -13.6371
rtoes -13.7342
lfemur -43.8086 -12.6952 -6.66819
ltibia 44.1773
lfoot -9.50902 9.92371
ltoes -40.2609
2120
root 5.54403 15.3668 19.2288 -340.682 -34.882 -5.28948
lowerback -11.4123 -0.546599 5.15921
upperback -7.75592 -1.3408 3.64677
thorax -1.75671 -0.853615 0.772147
lowerneck -28.68 -2.51368 -1.28093
upperneck 26.7113 -4.25789 3.4105
head 14.0057 -1.4767 0.730252
rclavicle 1.21408e-013 1.98785e-014
rhumerus -35.6857 -11.4314 -68.0346
rradius 27.0366
rwrist 0.564536
rhand -13.3025 -15.6477
rfingers 7.12502
rthumb 12.8016 -45.2352
lclavicle 1.21408e-013 1.98785e-014
lhumerus -40.7507 -4.14483 81.0848
lradius 37.3941
lwrist 45.2824
lhand -29.1342 -1.38054
lfingers 7.12502
lthumb -2.48127 28.5848
rfemur -29.7496 20.2073 24.2995
rtibia 37.236
rfoot -16.48 -13.5712
rtoes -14.0264
lfemur -43.9361 -13.1571 -5.84987
ltibia 42.2508
lfoot -9.73838 9.31704
ltoes -40.2933
2121
root 5.53449 15.3712 19.2927 -340.511 -35.1495 -5.40424
lowerback -11.4415 -0.486056 5.18797
upperback -7.73535 -1.26674 3.55949
thorax -1.72007 -0.818679 0.671252
lowerneck -28.6357 -2.47279 -1.2491
upperneck 26.775 -4.22429 3.42772
head 14.023 -1.45645 0.739181
rclavicle 6.43068e-014 -1.74931e-014
rhumerus -35.8568 -11.3502 -67.9771
rradius 27.2158
rwrist 0.0116878
rhand -13.2472 -15.655
rfingers 7.12502
rthumb 12.8549 -45.2391
lclavicle 6.43068e-014 -1.74931e-014
lhumerus -40.4046 -3.95425 81.1217
lradius 38.1177
lwrist 45.1565
lhand -28.9908 -1.56683
lfingers 7.12502
lthumb -2.34284 28.4
rfemur -29.4699 20.315 24.2606
rtibia 36.9209
rfoot -16.5564 -13.483
rtoes -14.279
lfemur -44.0147 -13.6344 -5.01907
ltibia 40.3199
lfoot -10.0267 8.52752
ltoes -40.3866
